<svg xmlns="http://www.w3.org/2000/svg" width="30" height="30" viewBox="0 0 30 30">
    <path fill="#000" fill-rule="evenodd" d="M1 13.008h28V10.01H1v2.998zm4.993 10.827A1.997 1.997 0 0 1 4 26c-1.103 0-2-.89-2-2 0-1.098.897-1.998 2-1.998.692 0 1.303.355 1.662.89l8.052-3.388-8.408-3.538a.494.494 0 0 1-.267-.65.511.511 0 0 1 .655-.27L15 18.964l9.306-3.916c.256-.1.548.02.655.27a.494.494 0 0 1-.267.65l-8.407 3.537 8.05 3.388c.36-.535.97-.89 1.663-.89 1.103 0 2 .9 2 1.998 0 1.11-.897 2-2 2a1.997 1.997 0 0 1-1.993-2.165L15 20.045l-9.007 3.79zM29.5 14.007H.5c-.276 0-.5-.22-.5-.5V9.51c0-.27.224-.5.5-.5h29c.276 0 .5.23.5.5v3.997c0 .28-.224.5-.5.5zm0-5.996h-10a.499.499 0 0 1-.427-.24.483.483 0 0 1-.018-.48c1.258-2.458 5.396-3.897 7.871-4.267.715-.11 1.523.16 2.164.709.578.5.91 1.15.91 1.78V7.51c0 .281-.224.501-.5.501zm-9.045-1H29V5.514c0-.34-.205-.72-.562-1.02-.412-.36-.944-.54-1.364-.48-2.372.35-5.263 1.489-6.619 2.999zM26 23.002c-.552 0-1 .45-1 1s.448 1 1 1 1-.45 1-1-.448-1-1-1zm-22 0c-.552 0-1 .45-1 1s.448 1 1 1 1-.45 1-1-.448-1-1-1z"/>
</svg>
