<svg xmlns="http://www.w3.org/2000/svg" width="113" height="16" viewBox="0 0 113 16">
    <path fill="#FFF" fill-rule="evenodd" d="M5.6 10.74H2.8V15H.58V1.3H5.6c3.107 0 4.66 1.533 4.66 4.6 0 1.573-.39 2.773-1.17 3.6-.78.827-1.943 1.24-3.49 1.24zM2.8 8.82h2.78c1.6 0 2.4-.973 2.4-2.92 0-.933-.193-1.613-.58-2.04-.387-.427-.993-.64-1.82-.64H2.8v5.6zM14.32 15h-2.18V.84h2.18v4.68c.987-.493 1.9-.74 2.74-.74 1.333 0 2.243.377 2.73 1.13.487.753.73 1.997.73 3.73V15h-2.18V9.7c0-1.08-.113-1.847-.34-2.3-.227-.453-.707-.68-1.44-.68-.64 0-1.28.107-1.92.32l-.32.12V15zm16.14-6.92v4.56c.013.293.09.51.23.65s.357.23.65.27l-.06 1.66c-1.147 0-2.033-.247-2.66-.74-1.067.493-2.14.74-3.22.74-1.987 0-2.98-1.06-2.98-3.18 0-1.013.27-1.747.81-2.2.54-.453 1.37-.727 2.49-.82l2.58-.22v-.72c0-.533-.117-.907-.35-1.12-.233-.213-.577-.32-1.03-.32-.853 0-1.92.053-3.2.16l-.64.04L23 5.3c1.453-.347 2.79-.52 4.01-.52 1.22 0 2.1.263 2.64.79s.81 1.363.81 2.51zm-4.48 2.48c-.92.08-1.38.58-1.38 1.5s.407 1.38 1.22 1.38c.667 0 1.373-.107 2.12-.32l.36-.12v-2.66l-2.32.22zM33.2 15V5h2.16v1.2c1.133-.733 2.267-1.207 3.4-1.42v2.18c-1.147.227-2.127.52-2.94.88l-.44.18V15H33.2zm9.4 0h-2.18V5h2.16v.62c.947-.56 1.813-.84 2.6-.84 1.16 0 2.007.327 2.54.98 1.213-.653 2.42-.98 3.62-.98 1.2 0 2.047.37 2.54 1.11.493.74.74 1.99.74 3.75V15h-2.16V9.7c0-1.08-.11-1.847-.33-2.3-.22-.453-.677-.68-1.37-.68-.6 0-1.247.133-1.94.4l-.34.14c.107.267.16 1.12.16 2.56V15h-2.16V9.86c0-1.187-.107-2.007-.32-2.46-.213-.453-.68-.68-1.4-.68-.667 0-1.287.133-1.86.4l-.3.12V15zm21.98-6.92v4.56c.013.293.09.51.23.65s.357.23.65.27l-.06 1.66c-1.147 0-2.033-.247-2.66-.74-1.067.493-2.14.74-3.22.74-1.987 0-2.98-1.06-2.98-3.18 0-1.013.27-1.747.81-2.2.54-.453 1.37-.727 2.49-.82l2.58-.22v-.72c0-.533-.117-.907-.35-1.12-.233-.213-.577-.32-1.03-.32-.853 0-1.92.053-3.2.16l-.64.04-.08-1.54c1.453-.347 2.79-.52 4.01-.52 1.22 0 2.1.263 2.64.79s.81 1.363.81 2.51zm-4.48 2.48c-.92.08-1.38.58-1.38 1.5s.407 1.38 1.22 1.38c.667 0 1.373-.107 2.12-.32l.36-.12v-2.66l-2.32.22zm12.08 4.66c-2 0-3.357-.553-4.07-1.66-.713-1.107-1.07-2.927-1.07-5.46s.36-4.337 1.08-5.41c.72-1.073 2.073-1.61 4.06-1.61 1.187 0 2.493.167 3.92.5l-.08 1.8c-1.2-.213-2.4-.32-3.6-.32-1.2 0-2.013.357-2.44 1.07-.427.713-.64 2.053-.64 4.02 0 1.967.207 3.307.62 4.02.413.713 1.22 1.07 2.42 1.07s2.413-.1 3.64-.3l.06 1.84c-1.373.293-2.673.44-3.9.44zm8.2-.22H78.2V.84h2.18v4.68c.987-.493 1.9-.74 2.74-.74 1.333 0 2.243.377 2.73 1.13.487.753.73 1.997.73 3.73V15H84.4V9.7c0-1.08-.113-1.847-.34-2.3-.227-.453-.707-.68-1.44-.68-.64 0-1.28.107-1.92.32l-.32.12V15zm16.14-6.92v4.56c.013.293.09.51.23.65s.357.23.65.27l-.06 1.66c-1.147 0-2.033-.247-2.66-.74-1.067.493-2.14.74-3.22.74-1.987 0-2.98-1.06-2.98-3.18 0-1.013.27-1.747.81-2.2.54-.453 1.37-.727 2.49-.82l2.58-.22v-.72c0-.533-.117-.907-.35-1.12-.233-.213-.577-.32-1.03-.32-.853 0-1.92.053-3.2.16l-.64.04-.08-1.54c1.453-.347 2.79-.52 4.01-.52 1.22 0 2.1.263 2.64.79s.81 1.363.81 2.51zm-4.48 2.48c-.92.08-1.38.58-1.38 1.5s.407 1.38 1.22 1.38c.667 0 1.373-.107 2.12-.32l.36-.12v-2.66l-2.32.22zM99.26 15V5h2.18v10h-2.18zm0-11.7V1h2.18v2.3h-2.18zm7 11.7h-2.18V5h2.16v.62c.973-.56 1.893-.84 2.76-.84 1.333 0 2.243.377 2.73 1.13.487.753.73 1.997.73 3.73V15h-2.16V9.7c0-1.08-.117-1.847-.35-2.3-.233-.453-.71-.68-1.43-.68-.68 0-1.333.133-1.96.4l-.3.12V15z"/>
</svg>
