<svg xmlns="http://www.w3.org/2000/svg" width="478" height="47" viewBox="0 0 478 47">
    <g fill="#FFF" fill-rule="evenodd">
        <g fill-rule="nonzero">
            <path d="M33.697 11.417a20.942 20.942 0 0 0-3.499 11.623c0 11.62 9.42 21.04 21.04 21.04H78.96c11.62 0 21.04-9.42 21.04-21.04S90.58 2 78.96 2H63.69l5.028 4.95H78.96c8.886 0 16.09 7.204 16.09 16.09 0 8.885-7.204 16.089-16.09 16.089H51.238c-8.886 0-16.09-7.204-16.09-16.09 0-4.454 1.814-8.606 4.964-11.622a611.52 611.52 0 0 0-6.415 0z"/>
            <path d="M66.303 34.662a20.942 20.942 0 0 0 3.499-11.622c0-11.62-9.42-21.04-21.04-21.04H21.04C9.42 2 0 11.42 0 23.04s9.42 21.04 21.04 21.04h15.27l-5.028-4.951H21.04c-8.886 0-16.09-7.204-16.09-16.09 0-8.885 7.204-16.089 16.09-16.089h27.722c8.886 0 16.09 7.204 16.09 16.09 0 4.454-1.814 8.606-4.964 11.622 3.366.011 4.35.011 6.415 0z"/>
        </g>
        <text font-family="TitilliumWeb-Regular, Titillium Web" font-size="64" transform="translate(0 -27)">
            <tspan x="120.136" y="73">PharmaChain</tspan>
        </text>
    </g>
</svg>
