<svg xmlns="http://www.w3.org/2000/svg" width="30" height="30" viewBox="0 0 30 30">
    <path fill="#000" fill-rule="evenodd" d="M18.513 18.814l6.848-6.848a5.526 5.526 0 0 0 1.628-3.932A5.526 5.526 0 0 0 25.361 4.1l-.463-.465a5.555 5.555 0 0 0-3.931-1.628 5.556 5.556 0 0 0-3.932 1.628l-6.85 6.85 8.328 8.328zm-.717.717l-8.328-8.329-5.829 5.83a5.522 5.522 0 0 0-1.628 3.932c0 1.486.577 2.881 1.628 3.932l.463.465a5.517 5.517 0 0 0 3.931 1.628c1.485 0 2.881-.576 3.931-1.628l5.832-5.83zM8.033 28a6.58 6.58 0 0 1-4.645-1.92l-.464-.466A6.533 6.533 0 0 1 1 20.964c0-1.75.683-3.407 1.924-4.64L16.32 2.918a6.585 6.585 0 0 1 9.291 0l.463.465A6.534 6.534 0 0 1 28 8.033a6.51 6.51 0 0 1-1.925 4.641L12.68 26.079A6.58 6.58 0 0 1 8.033 28zm-2.602-4.254a.533.533 0 0 1-.358-.141c-1.724-1.729-1.131-4.64.506-6.278l4.043-4.044a.497.497 0 0 1 .714 0 .508.508 0 0 1 0 .718l-4.042 4.044c-1.265 1.263-1.784 3.558-.506 4.842a.508.508 0 0 1 0 .718.529.529 0 0 1-.357.141z"/>
</svg>
