<svg xmlns="http://www.w3.org/2000/svg" width="30" height="30" viewBox="0 0 30 30">
    <path fill="#000" fill-rule="evenodd" d="M13.25 11.463l-1.541 1.542 1.644 1.645c.196.19.196.51 0 .71a.523.523 0 0 1-.353.14.528.528 0 0 1-.354-.14L11 13.714l-1.291 1.29 1.145 1.146c.195.19.195.51 0 .71a.528.528 0 0 1-.354.14.523.523 0 0 1-.353-.14L9 15.714l-1.541 1.54 1.395 1.396c.195.19.195.51 0 .71a.528.528 0 0 1-.354.14.528.528 0 0 1-.354-.14L6.75 17.964 5.043 19.67l.882 4.41 4.41.88 12.957-12.955-5.291-5.292-1.792 1.792 1.644 1.645c.196.19.196.51 0 .71a.523.523 0 0 1-.353.14.528.528 0 0 1-.354-.14L15.5 9.214l-1.541 1.54 1.395 1.396c.195.19.195.51 0 .71A.528.528 0 0 1 15 13a.523.523 0 0 1-.353-.14l-1.397-1.397zm-4.62 3.203a.483.483 0 0 1 .032-.031l1.966-1.967a.483.483 0 0 1 .036-.035l4.46-4.46a.483.483 0 0 1 .044-.044l2.124-2.124-1.145-1.145a.502.502 0 0 1 0-.71c.195-.2.511-.2.707 0l1.493 1.493a.52.52 0 0 1 .016.016l5.984 5.984a.52.52 0 0 1 .016.016l1.491 1.491c.195.19.195.51 0 .71a.528.528 0 0 1-.354.14.523.523 0 0 1-.353-.14l-1.146-1.146L10.854 25.86a.517.517 0 0 1-.354.14c-.033 0-.065 0-.098-.01l-4.731-.946L.854 29.86A.528.528 0 0 1 .5 30a.528.528 0 0 1-.354-.14.504.504 0 0 1 0-.71l4.812-4.812L4.01 19.6a.501.501 0 0 1 .136-.45l4.484-4.484zm18.661-8.661l-3.29-3.291-2.647 2.646A.528.528 0 0 1 21 5.5a.523.523 0 0 1-.353-.14.502.502 0 0 1 0-.71l2.645-2.645L22.147.86a.502.502 0 0 1 0-.71c.195-.2.511-.2.707 0l1.487 1.487a.518.518 0 0 1 .027.027l5.485 5.486c.196.19.196.51 0 .71A.523.523 0 0 1 29.5 8a.528.528 0 0 1-.354-.14L28 6.713 25.353 9.36A.523.523 0 0 1 25 9.5a.528.528 0 0 1-.354-.14.504.504 0 0 1 0-.71l2.645-2.645z"/>
</svg>
